<svg width="170" height="36" viewBox="0 0 170 36" fill="none" xmlns="http://www.w3.org/2000/svg">
<path fill-rule="evenodd" clip-rule="evenodd" d="M20.9785 0.335938C24.5862 0.928245 27.9785 2.92055 30.1324 5.88209C30.5631 6.4744 30.9939 7.12055 31.317 7.82055C30.7942 8.18249 30.2714 8.53691 29.7514 8.88943L29.7513 8.88949C28.8788 9.48098 28.0143 10.0671 27.1708 10.6744C26.9554 10.8359 26.7939 10.9436 26.5247 11.0513C25.8785 9.43594 24.7477 7.98209 23.2939 7.01286C22.217 6.31286 20.9785 5.82825 19.74 5.55901C20.0431 4.17378 20.3809 2.78854 20.7255 1.37532L20.7256 1.37516C20.8096 1.03055 20.8941 0.684279 20.9785 0.335938ZM7.94763 1.89752C9.61686 1.35906 11.5553 2.2206 12.2553 3.78213C12.8476 4.96675 12.6861 6.52829 11.8784 7.55136C10.8553 8.84367 8.91686 9.32829 7.46302 8.57444C6.49379 8.08983 5.73994 7.17444 5.52456 6.09752C5.36302 5.28983 5.41686 4.42829 5.84763 3.67444C6.2784 2.8129 7.08609 2.2206 7.94763 1.89752ZM4.45575 20.2468C3.14551 20.2348 1.84317 20.223 0.516968 20.2588C0.840045 22.8434 1.64774 25.3203 3.04774 27.3665C4.23235 29.3049 5.90158 30.9742 7.7862 32.2126C11.2862 34.528 15.6477 35.3896 19.7939 34.8511C21.8939 34.5819 23.9939 33.8819 25.8247 32.8049C28.6785 31.1357 30.8862 28.4973 32.0708 25.428C32.2862 24.8896 32.5016 24.3511 32.5554 23.8126C31.8069 23.5858 31.0775 23.3399 30.3511 23.095C29.3531 22.7585 28.3608 22.4239 27.3324 22.1434C26.9554 23.5434 26.2554 24.8357 25.34 25.9665C23.9939 27.6357 22.1631 28.7665 20.117 29.2511C17.8554 29.7896 15.4862 29.6819 13.3324 28.8742C11.7708 28.2819 10.317 27.3665 9.1862 26.0742C7.73235 24.4588 6.81697 22.4126 6.44004 20.2588C5.77394 20.2588 5.11385 20.2528 4.45575 20.2468Z" fill="white"/>
<path fill-rule="evenodd" clip-rule="evenodd" d="M85.9171 12.9359C89.8479 9.70515 95.9325 9.759 99.971 12.8282C103.363 15.5205 104.279 20.1513 103.956 24.2436C100.184 24.2795 96.3892 24.2675 92.602 24.2556C90.7114 24.2496 88.8228 24.2436 86.9402 24.2436C87.2094 26.5052 88.4479 28.8205 90.6556 29.6821C93.8325 31.2436 98.0325 29.7359 99.1633 26.2898C99.4634 26.3829 99.7615 26.476 100.058 26.5688L100.059 26.5688L100.059 26.5689C101.307 26.9587 102.533 27.3418 103.794 27.6898C102.932 30.059 101.371 32.2667 99.1094 33.5052C94.694 36.0359 88.5556 35.2821 84.9479 31.6205C79.994 26.6667 80.371 17.3513 85.9171 12.9359ZM49.8939 11.3207C45.4247 9.43604 39.8247 11.3207 37.2939 15.413C33.9555 20.636 34.6016 28.3899 39.3939 32.5899C43.2708 35.9283 50.4324 36.0899 53.1785 31.1899C53.2055 31.7283 53.2324 32.2533 53.2593 32.7783C53.2862 33.3033 53.3131 33.8283 53.3401 34.3668H58.617C58.3429 29.4668 58.374 24.5668 58.4052 19.6668C58.423 16.8668 58.4408 14.0668 58.4016 11.2668H53.017C53.017 12.2899 53.017 13.2591 53.0708 14.2283C52.2631 12.9899 51.2939 11.8591 49.8939 11.3207ZM41.9246 27.3126C39.663 23.4357 40.5246 16.7588 45.4784 15.5203C48.063 14.8742 51.0784 16.0588 52.2092 18.5357C53.663 21.7126 53.4476 25.9126 50.9707 28.4972C48.4938 31.1357 43.6476 30.4895 41.9246 27.3126ZM87.1614 19.8181C87.4422 18.8518 87.7358 17.8416 88.4477 17.0823C90.3861 14.7669 94.2092 14.5515 96.5246 16.2746C97.7631 17.1899 98.1938 18.6976 98.5707 20.0976C95.7018 20.2593 92.8025 20.239 89.9183 20.2188H89.9182H89.9181H89.9179H89.9178C88.9588 20.212 88.0016 20.2053 87.0477 20.2053C87.086 20.0775 87.1236 19.9482 87.1614 19.8181ZM112.194 12.7205C115.909 9.86663 121.348 9.86663 125.278 12.2897C129.155 14.8205 130.448 19.882 129.909 24.2436C126.14 24.2077 122.371 24.2196 118.601 24.2316L118.601 24.2316C116.716 24.2376 114.832 24.2436 112.948 24.2436C113.217 25.5897 113.54 26.9897 114.455 28.0128C116.501 30.5436 120.594 31.0282 123.178 29.0897C123.8 28.6409 124.2 27.9928 124.592 27.3583C124.811 27.0034 125.027 26.6527 125.278 26.3436C126.409 26.6262 127.54 26.9998 128.671 27.3733L128.671 27.3734C129.048 27.4979 129.425 27.6224 129.801 27.7436C128.94 30.1666 127.325 32.3743 125.009 33.6128C120.648 35.982 114.725 35.3359 111.171 31.8359C105.894 26.8282 106.325 17.082 112.194 12.7205ZM113.107 19.8483C113.39 18.8827 113.677 17.9026 114.348 17.1358C116.34 14.6589 120.378 14.4974 122.694 16.4358C123.825 17.405 124.202 18.8589 124.471 20.205H113.002C113.037 20.0866 113.072 19.9676 113.107 19.8483ZM140.463 14.0667C143.532 9.32823 151.663 9.38207 154.248 14.5513C156.725 10.2975 162.917 9.32823 166.794 12.1821C168.894 13.7975 169.863 16.4898 169.863 19.0744C169.899 22.4477 169.887 25.8209 169.875 29.1942V29.1975C169.869 30.8846 169.863 32.5718 169.863 34.259H164.532V20.6359C164.532 19.2359 164.317 17.7282 163.348 16.7052C161.302 14.659 157.371 15.1975 156.025 17.7821C155.325 18.9667 155.325 20.4205 155.325 21.7128V34.259H149.94C149.917 32.1588 149.924 30.0585 149.93 27.9625V27.9605V27.9604C149.939 25.167 149.948 22.3811 149.886 19.6128C149.886 17.459 148.109 15.4667 145.902 15.5205C143.317 15.1436 140.894 17.2436 140.732 19.7744C140.635 22.684 140.655 25.5936 140.674 28.4916V28.4923C140.687 30.4208 140.7 32.3442 140.679 34.259H135.24V11.159H140.517C140.517 12.1821 140.517 13.1513 140.463 14.0667ZM70.7863 11.2131H65.4017V34.3131H70.894C70.9209 32.4015 70.9209 30.49 70.9209 28.5785C70.9209 26.6669 70.9209 24.7554 70.9478 22.8438C71.0017 20.9054 71.594 18.6977 73.3171 17.5669C74.7709 16.5008 76.6172 16.5686 78.3457 16.6321C78.5379 16.6392 78.7285 16.6462 78.9171 16.6515V10.9977C75.7401 10.5669 72.2401 11.8054 70.7324 14.8208C70.7324 14.2285 70.7459 13.6227 70.7594 13.0169C70.7728 12.4112 70.7863 11.8054 70.7863 11.2131Z" fill="white"/>
</svg>
