<svg width="166" height="35" viewBox="0 0 166 35" fill="none" xmlns="http://www.w3.org/2000/svg">
<path d="M34.1071 21.7684C31.8057 31.0009 22.4564 36.6171 13.2239 34.3157C3.99632 32.0143 -1.62145 22.6644 0.681013 13.4341C2.98132 4.20167 12.3301 -1.4161 21.5593 0.885289C30.7907 3.18667 36.4079 12.5376 34.1066 21.7684H34.1071Z" fill="white"/>
<path fill-rule="evenodd" clip-rule="evenodd" d="M24.991 15.1461C25.334 12.8533 23.5883 11.6208 21.2013 10.7986L21.9756 7.69272L20.0851 7.22156L19.3312 10.2456C18.8277 10.1218 18.323 10.003 17.8171 9.8891L18.5763 6.84518L16.6863 6.37402L15.912 9.47879C15.5006 9.3851 15.0968 9.29248 14.7048 9.19502L14.7069 9.18533L12.0997 8.53433L11.5968 10.5536C11.5968 10.5536 12.9995 10.875 12.9699 10.8949C13.7356 11.0861 13.8739 11.5928 13.8508 11.9945L12.9688 15.5327C13.0216 15.5462 13.0899 15.5661 13.1653 15.5957L12.9656 15.5462L11.7292 20.5027C11.6356 20.7353 11.3981 21.0843 10.8623 20.9518C10.8817 20.9793 9.48871 20.6088 9.48871 20.6088L8.55017 22.7734L11.0104 23.3873C11.2924 23.4576 11.571 23.5302 11.8466 23.602C12.0182 23.6467 12.1887 23.6912 12.3582 23.7346L11.5758 26.8759L13.4642 27.3471L14.2385 24.2386C14.7543 24.3791 15.2551 24.5078 15.7451 24.63L14.9729 27.7235L16.8629 28.1946L17.6459 25.0592C20.8696 25.6693 23.2938 25.4232 24.3142 22.5079C25.1364 20.1603 24.2732 18.806 22.5771 17.9224C23.8123 17.637 24.7428 16.8245 24.991 15.1461ZM20.6709 21.2027C20.1347 23.3577 16.76 22.4657 15.2185 22.0582C15.0807 22.0217 14.9575 21.9892 14.8523 21.963L15.8905 17.8013C16.0197 17.8336 16.1777 17.869 16.3567 17.9093C17.9528 18.2678 21.22 19.0017 20.6709 21.2027ZM16.6756 15.9779C17.9617 16.3212 20.767 17.0698 21.2557 15.1127V15.1122C21.7547 13.1098 19.0281 12.5062 17.6965 12.2114C17.5467 12.1782 17.4145 12.149 17.3066 12.1221L16.3654 15.8967C16.4543 15.9189 16.5587 15.9467 16.6756 15.9779Z" fill="white"/>
<path fill-rule="evenodd" clip-rule="evenodd" d="M50.6593 10.7954C52.0566 10.7954 53.2638 11.0457 54.2777 11.5374C55.2976 12.0338 56.1387 12.7026 56.8134 13.5437C57.4789 14.3891 57.9743 15.3771 58.2941 16.5095C58.6118 17.6457 58.7712 18.8658 58.7712 20.1721C58.7712 22.1806 58.4034 24.076 57.6609 25.8637C56.9178 27.654 55.9109 29.2075 54.6294 30.5321C53.3489 31.8551 51.8369 32.8976 50.0934 33.6681C48.3525 34.4392 46.4598 34.8247 44.4277 34.8247C44.1649 34.8247 43.7029 34.8172 43.0503 34.8037C42.3977 34.7903 41.6476 34.723 40.8076 34.6099C39.9047 34.481 39.0091 34.3052 38.1244 34.0833C37.1986 33.8597 36.2992 33.5385 35.4413 33.1248L42.9862 1.42128L49.7439 0.374512L47.0424 11.6246C47.6042 11.3707 48.1873 11.1667 48.7849 11.015C49.3983 10.866 50.0275 10.7922 50.6587 10.7954H50.6593ZM44.9909 29.4638C46.0086 29.4638 46.9671 29.2134 47.8684 28.7224C48.7745 28.2271 49.5696 27.5516 50.2048 26.7376C50.8687 25.8888 51.3911 24.9384 51.7518 23.923C52.1301 22.8735 52.3222 21.7659 52.3194 20.6503C52.3194 19.2546 52.0862 18.168 51.6215 17.3802C51.1568 16.5967 50.2969 16.2026 49.0477 16.2026C48.6384 16.2026 48.1118 16.2807 47.4581 16.4201C46.8023 16.5682 46.2154 16.8757 45.6893 17.3382L42.8123 29.2856C42.9857 29.3163 43.1391 29.3454 43.27 29.3728C43.3981 29.4024 43.5392 29.4234 43.6808 29.438C43.83 29.4547 44.0007 29.4633 44.2069 29.4633L44.9904 29.4638H44.9909ZM59.3248 34.2186H65.7794L71.2744 11.2817H64.7757L59.3248 34.2186ZM68.9202 8.48717C68.0396 8.49447 67.1812 8.21135 66.4777 7.68163C65.747 7.14748 65.3846 6.32525 65.3846 5.21709C65.3846 4.60755 65.5085 4.03571 65.7546 3.49617C65.9924 2.97351 66.3258 2.49996 66.7378 2.09994C67.1507 1.70585 67.6301 1.38809 68.1539 1.1614C68.6991 0.928431 69.2863 0.810031 69.8792 0.813553C70.7795 0.813553 71.5915 1.08171 72.3195 1.61909C73.0443 2.15917 73.4088 2.9814 73.4088 4.08363C73.4123 4.67858 73.2855 5.2671 73.0373 5.80778C72.8018 6.33094 72.4692 6.80472 72.0573 7.20401C71.6453 7.59861 71.1656 7.91564 70.6411 8.13986C70.1016 8.37571 69.5297 8.48717 68.9202 8.48717ZM83.6912 4.51959L76.9308 5.5669L72.6554 23.6194C72.3071 25.1017 72.1046 26.5104 72.0454 27.85C71.9877 29.187 72.194 30.3733 72.6554 31.4017C73.1234 32.4345 73.9052 33.2508 75.0112 33.8474C76.1188 34.4397 77.6734 34.7375 79.6786 34.7375C81.0732 34.7375 82.2799 34.625 83.2992 34.3902C84.2606 34.1751 85.2074 33.8991 86.1337 33.5637L85.6512 28.591C85.0046 28.8197 84.3424 29.0015 83.6697 29.1348C83.0149 29.2662 82.3359 29.3324 81.6397 29.3324C80.7943 29.3324 80.1497 29.2145 79.6991 28.9803C79.2467 28.7504 78.9355 28.4246 78.7621 28.0019C78.5877 27.5803 78.5134 27.0795 78.5457 26.4964C78.5737 25.9154 78.6738 25.2907 78.8504 24.6225L80.7674 16.5994H87.9639L89.2713 11.2805H82.0311L83.6912 4.51959ZM88.9875 25.0596C88.9875 23.0835 89.3073 21.2209 89.9459 19.4763C90.584 17.7306 91.5032 16.2041 92.6953 14.8946C93.8837 13.5915 95.3316 12.5582 97.0364 11.8C98.7315 11.0462 100.631 10.666 102.724 10.666C104.034 10.666 105.204 10.7899 106.234 11.0381C107.268 11.2885 108.203 11.6121 109.049 12.0181L106.823 17.0796C106.23 16.8412 105.626 16.6303 105.014 16.4475C104.389 16.2552 103.627 16.1626 102.725 16.1626C100.57 16.1626 98.8677 16.9057 97.6002 18.3854C96.3369 19.8667 95.701 21.8606 95.701 24.3623C95.701 25.8447 96.0214 27.0428 96.6632 27.9598C97.3019 28.8768 98.4816 29.3334 100.194 29.3334C101.039 29.3334 101.856 29.2451 102.637 29.0728C103.424 28.8983 104.119 28.6786 104.732 28.4191L105.214 33.6077C104.331 33.9464 103.428 34.2313 102.51 34.4606C101.52 34.7029 100.342 34.8279 98.9759 34.8279C97.1732 34.8279 95.6461 34.5646 94.3979 34.0444C93.1487 33.5172 92.1165 32.8167 91.3029 31.9293C90.4855 31.0398 89.8991 30.0006 89.5362 28.8089C89.1732 27.6173 88.9869 26.3643 88.9869 25.0596H88.9875ZM113.646 34.1269C114.781 34.5916 116.12 34.8264 117.661 34.8264C119.783 34.8264 121.653 34.3821 123.264 33.4953C124.879 32.609 126.223 31.4685 127.297 30.0739C128.374 28.6771 129.19 27.1048 129.74 25.3656C130.289 23.6188 130.565 21.871 130.565 20.1296C130.565 18.7355 130.378 17.461 129.998 16.3157C129.622 15.165 129.061 14.1726 128.323 13.3272C127.577 12.4861 126.634 11.8287 125.489 11.3651C124.338 10.9004 123.007 10.6651 121.494 10.6651C119.433 10.6651 117.598 11.1098 116.003 11.994C114.407 12.8841 113.05 14.0256 111.95 15.4218C110.843 16.8159 110.005 18.385 109.44 20.1296C108.873 21.8726 108.593 23.6194 108.593 25.3661C108.593 26.7591 108.776 28.0304 109.157 29.1784C109.537 30.327 110.093 31.3237 110.836 32.1647C111.578 33.0101 112.515 33.6627 113.646 34.1269ZM120.886 16.1631C119.929 16.1631 119.083 16.4404 118.359 16.9891C117.632 17.5443 117.022 18.2427 116.53 19.0838C116.032 19.9291 115.664 20.851 115.415 21.8531C115.167 22.8573 115.046 23.8077 115.046 24.7085C115.046 26.164 115.281 27.2985 115.742 28.1138C116.209 28.9247 117.05 29.3334 118.272 29.3334C119.232 29.3334 120.074 29.0571 120.802 28.5031C121.525 27.9522 122.136 27.2538 122.632 26.4101C123.126 25.5701 123.498 24.645 123.747 23.6408C123.991 22.6398 124.116 21.6851 124.116 20.7848C124.116 19.3331 123.882 18.1969 123.416 17.3822C122.951 16.5708 122.107 16.1626 120.886 16.1626V16.1631ZM131.14 34.2186H137.599L143.092 11.2817H136.591L131.14 34.2186ZM140.735 8.48717C139.856 8.49461 138.998 8.21144 138.296 7.68163C137.568 7.14748 137.203 6.32525 137.203 5.21709C137.203 4.60756 137.329 4.03571 137.574 3.49617C137.81 2.97289 138.144 2.49913 138.556 2.09994C138.97 1.70571 139.45 1.38794 139.974 1.1614C140.517 0.928389 141.102 0.80997 141.693 0.813556C142.596 0.813556 143.411 1.08171 144.137 1.61909C144.864 2.15917 145.23 2.9814 145.23 4.08363C145.23 4.69532 145.1 5.26932 144.856 5.80779C144.612 6.34625 144.284 6.80986 143.878 7.20402C143.465 7.59768 142.986 7.9146 142.462 8.13986C141.921 8.37571 141.349 8.48717 140.735 8.48717ZM149.376 11.8218C148.781 12.0092 148.234 12.1815 147.744 12.3247L142.465 34.2148H148.965L153.195 16.4682C154.042 16.2954 154.903 16.2066 155.767 16.2032C156.639 16.2032 157.283 16.3707 157.709 16.704C158.123 17.0324 158.408 17.4963 158.513 18.0141C158.633 18.5542 158.639 19.1793 158.536 19.8879C158.434 20.603 158.296 21.3353 158.121 22.0919L155.243 34.2164H161.74L164.709 21.8318C165.549 18.4023 165.325 15.6976 164.031 13.7209C162.735 11.7442 160.389 10.7529 156.985 10.7529C155.827 10.7529 154.784 10.8035 153.87 10.9075C152.955 11.0092 152.123 11.1412 151.386 11.3027C150.708 11.4435 150.037 11.6167 149.376 11.8218Z" fill="white"/>
</svg>
