<svg width="169" height="36" viewBox="0 0 169 36" fill="none" xmlns="http://www.w3.org/2000/svg">
<path fill-rule="evenodd" clip-rule="evenodd" d="M13.8944 24.9763C16.5816 29.3823 21.5101 32.3384 26.9952 32.3384C35.0997 32.3384 39.5611 25.3443 39.5611 25.3443L40.1354 27.2073C36.3833 32.0872 29.6803 35.0269 22.181 35.0269C13.5469 35.0269 6.10052 30.908 2.67424 24.9683C1.3842 22.731 0.664062 20.2321 0.664062 17.6003C0.664062 7.97591 10.2965 0.174316 22.1807 0.174316C30.5776 0.174316 37.3382 3.77095 40.8871 8.98317L26.7979 17.42L34.8386 5.07339C32.5382 3.62662 29.7159 2.27184 26.7979 2.27184C18.5491 2.27184 11.755 9.15538 11.755 17.4039C11.755 20.1677 12.5399 22.7645 13.8944 24.9763ZM51.6194 24.9714C51.5772 25.2528 51.556 25.537 51.5562 25.8216C51.5562 28.9527 54.0948 31.4916 57.2262 31.4916C60.3576 31.4916 62.8959 28.953 62.8959 25.8216C62.8961 25.5359 62.8748 25.2507 62.8324 24.9683C62.4223 22.2435 60.0687 20.1519 57.2259 20.1519C54.3835 20.1519 52.0295 22.2435 51.6194 24.9714ZM75.4761 34.4604L72.6581 24.9683L68.4597 10.8267C68.4597 10.8267 65.8071 3.6037 57.4365 6.64901C49.066 9.69463 47.1784 10.8267 47.1784 10.8267H58.5234L61.2159 19.8288C59.1447 17.9992 56.1134 16.8452 52.736 16.8452C46.7857 16.8452 41.9095 20.4279 41.4654 24.9683C41.4437 25.199 41.4326 25.4251 41.4326 25.6528C41.4326 30.5175 46.493 34.4604 52.736 34.4604C57.9538 34.4604 62.3461 31.7059 63.6476 27.9606L65.5912 34.4604H75.4761ZM104.263 24.9685V34.4606H94.0915V13.6055C94.0915 12.0709 92.8474 10.8269 91.3128 10.8269C90.1673 10.8266 89.139 11.5294 88.7232 12.5967V34.4606H78.7407V10.8269H72.9189C72.9189 10.8269 81.0179 5.92041 83.8262 5.92041C86.4878 5.92041 88.4577 7.96528 88.7039 10.5701C89.458 10.1634 90.2109 9.74097 90.9541 9.32392C94.0714 7.57464 97.0194 5.92041 99.1773 5.92041C101.938 5.92041 104.186 8.12076 104.263 10.8641V24.9685ZM121.347 29.647L119.931 24.9684L115.655 10.8266C115.887 8.98241 117.705 7.2002 119.613 7.2002C121.539 7.2002 123.126 8.65502 123.334 10.5264L127.559 24.9684L128.763 29.0808C128.779 29.2226 128.788 29.3667 128.788 29.5132C128.788 31.5806 127.112 33.2563 125.044 33.2563C123.022 33.2563 121.374 31.6522 121.347 29.647ZM136.118 24.9703C134.191 30.811 128.69 35.0271 122.204 35.0271C115.717 35.0271 110.216 30.8113 108.289 24.9684C107.801 23.4876 107.553 21.9382 107.555 20.3791C107.555 12.2891 114.113 5.73145 122.204 5.73145C130.294 5.73145 136.852 12.2891 136.852 20.3791C136.852 21.9826 136.594 23.5263 136.118 24.9703ZM152.958 34.4606V24.9685V12.5967C153.374 11.5294 154.403 10.8266 155.548 10.8269C157.083 10.8269 158.327 12.0709 158.327 13.6055V34.4606H168.498V10.8641C168.422 8.12076 166.174 5.92041 163.413 5.92041C161.255 5.92041 158.308 7.57425 155.191 9.32329C154.447 9.74054 153.694 10.1632 152.94 10.5701C152.693 7.96528 150.723 5.92041 148.061 5.92041C145.253 5.92041 137.393 10.8269 137.393 10.8269H142.976V34.4606H152.958Z" fill="white"/>
</svg>
