<svg width="126" height="35" viewBox="0 0 126 35" fill="none" xmlns="http://www.w3.org/2000/svg">
<path fill-rule="evenodd" clip-rule="evenodd" d="M121.053 26.4043C118.929 26.4043 117.054 28.0011 117.054 30.3632C117.054 32.7206 118.929 34.319 121.053 34.319C123.183 34.319 125.055 32.7206 125.055 30.3632C125.055 28.0011 123.182 26.4043 121.053 26.4043ZM121.056 27.0421C122.929 27.0421 124.288 28.446 124.288 30.3632C124.288 32.275 122.929 33.6789 121.056 33.6789C119.186 33.6789 117.825 32.2773 117.825 30.3632C117.825 28.446 119.186 27.0421 121.056 27.0421ZM120.207 32.7028V30.5335L120.21 30.5351V30.5328H120.891C121.355 30.5328 121.572 30.6805 121.694 31.0858C121.759 31.317 121.792 31.5677 121.824 31.8142C121.866 32.1356 121.907 32.4499 122.016 32.7043H122.846C122.714 32.554 122.633 31.9806 122.572 31.5514L122.572 31.5514C122.562 31.4834 122.553 31.4189 122.545 31.3603C122.461 30.7 122.313 30.3391 121.908 30.2745V30.2543C122.374 30.1929 122.736 29.769 122.736 29.2339C122.736 28.3651 122.268 27.9194 121.247 27.9194H119.506V32.7028H120.207ZM121.075 29.9154C121.756 29.9154 121.95 29.553 121.95 29.2333C121.95 28.8553 121.756 28.5566 121.075 28.5566H120.206V29.917H121.075V29.9154Z" fill="white"/>
<path fill-rule="evenodd" clip-rule="evenodd" d="M65.9393 0.361328V33.6292H84.4022V26.1952H73.7599V19.6463H84.4022L84.4022 12.5112L93.7993 23.0719L84.4022 33.6295H94.0171L98.5866 28.4596L103.196 33.6295H113.153L103.672 23.0276L113.023 12.5112H103.455L98.9739 17.6415L94.3173 12.5112H84.4022L84.4022 12.511H73.7599V7.77666H84.4022V0.361328H65.9393Z" fill="white"/>
<path fill-rule="evenodd" clip-rule="evenodd" d="M58.1475 0.362793V13.9762H58.0612C56.3369 11.9945 54.1817 11.3038 51.6827 11.3038C46.5618 11.3038 42.704 14.7875 41.3499 19.3896C39.8052 14.3177 35.8222 11.2089 29.9173 11.2089C25.1208 11.2089 21.3345 13.361 19.3567 16.8688V12.5101H9.44388V7.77735H20.2628V0.362793H0.607544V33.6291H9.44388V19.6462H18.2514C17.9801 20.7215 17.8445 21.8265 17.8478 22.9355C17.8478 29.8717 23.1483 34.746 29.9158 34.746C35.6044 34.746 39.3564 32.0728 41.339 27.2062H33.7658C32.7422 28.6708 31.9644 29.1032 29.9165 29.1032C27.5428 29.1032 25.4941 27.0312 25.4941 24.5781H40.9143C41.5832 30.0887 45.8765 34.8401 51.769 34.8401C54.3108 34.8401 56.6379 33.5902 58.0604 31.4786H58.146V33.6338H65.937V0.362793H58.1475ZM25.7399 19.7458C26.2322 17.6318 27.871 16.2505 29.9165 16.2505C32.169 16.2505 33.7245 17.589 34.1329 19.7458H25.7399ZM48.7644 23.098C48.7644 25.8918 50.5487 28.5666 53.4194 28.5666C56.5632 28.5666 57.9212 25.9276 57.9212 23.098C57.9212 20.1129 56.6387 17.2421 53.4194 17.2421C50.3169 17.2421 48.7644 20.1113 48.7644 23.098Z" fill="white"/>
</svg>
