<svg width="117" height="36" viewBox="0 0 117 36" fill="none" xmlns="http://www.w3.org/2000/svg">
<path d="M72.6544 27.5312C65.9358 32.4989 56.1634 35.1456 47.7347 35.1456C35.9263 35.1456 25.3395 30.7887 17.2772 23.5408C16.6664 22.9707 17.1958 22.1971 17.9694 22.645C26.6425 27.6941 37.3514 30.7073 48.4269 30.7073C55.8784 30.7073 64.1035 29.16 71.6771 25.9432C72.8173 25.4953 73.7538 26.7169 72.6544 27.5312Z" fill="white"/>
<path d="M75.464 24.3143C74.6089 23.2149 69.7634 23.785 67.6053 24.07C66.9538 24.1515 66.8316 23.5814 67.4424 23.1742C71.3107 20.4461 77.622 21.2604 78.355 22.1563C79.0879 23.0521 78.1514 29.4042 74.5274 32.4173C73.9574 32.8652 73.428 32.6209 73.6723 32.0101C74.4867 29.9742 76.319 25.4545 75.464 24.3143Z" fill="white"/>
<path fill-rule="evenodd" clip-rule="evenodd" d="M24.688 20.4463H21.1047C20.779 20.4056 20.494 20.1613 20.4532 19.8355V1.43075C20.4532 1.06428 20.779 0.779255 21.1455 0.779255H24.4844C24.8508 0.779255 25.0952 1.06428 25.1359 1.39003V3.79242H25.2173C26.0724 1.47147 27.7419 0.37207 29.9407 0.37207C32.1802 0.37207 33.6053 1.47147 34.5826 3.79242C35.4377 1.47147 37.4329 0.37207 39.5502 0.37207C41.0568 0.37207 42.6856 0.982848 43.7035 2.408C44.6739 3.72499 44.6414 5.54346 44.6102 7.28593C44.6047 7.59065 44.5993 7.89304 44.5993 8.19002V19.8355C44.5993 20.202 44.2736 20.487 43.9071 20.487H40.3646C39.9981 20.4463 39.7131 20.1613 39.7131 19.8355V10.0631C39.7131 9.89655 39.7169 9.6753 39.7212 9.42331C39.7368 8.50461 39.7595 7.17717 39.6317 6.602C39.3466 5.38045 38.573 5.01398 37.5143 5.01398C36.6592 5.01398 35.7227 5.58404 35.3562 6.52057C35.022 7.37462 35.0265 8.73661 35.0298 9.77277C35.0302 9.87282 35.0305 9.96984 35.0305 10.0631V19.8355C35.0305 20.202 34.7047 20.487 34.3383 20.487H30.755C30.3886 20.4463 30.1035 20.1613 30.1035 19.8355V10.0631C30.1035 9.86022 30.1068 9.64726 30.1101 9.42823C30.1401 7.44891 30.1777 4.97326 27.9047 4.97326C25.4154 4.97326 25.4184 7.73411 25.4208 9.86962L25.4209 10.0631V19.8355C25.3802 20.1613 25.0952 20.4463 24.688 20.4463ZM67.7275 4.03697V1.39027C67.7275 0.983081 68.0125 0.73877 68.379 0.73877H80.1874C80.5538 0.73877 80.8796 1.0238 80.8796 1.39027V3.62978C80.8796 3.99625 80.5538 4.48487 79.9838 5.29924L73.876 14.013C76.1562 13.9723 78.5586 14.298 80.5945 15.4382C81.0424 15.6825 81.1646 16.0896 81.2053 16.4561V19.2657C81.2053 19.6729 80.7981 20.1208 80.3502 19.8765C76.7263 17.9627 71.8808 17.7591 67.8904 19.9172C67.4832 20.1208 67.0353 19.7136 67.0353 19.3064V16.619C67.0353 16.2118 67.0353 15.4789 67.4832 14.8274L74.5682 4.68846H68.4197C68.0532 4.68846 67.7275 4.40344 67.7275 4.03697ZM99.2843 10.7553C99.2843 4.93254 96.3933 0.37207 91.0591 0.37207C85.8472 0.37207 82.9562 4.85111 82.9969 10.5924C82.9969 16.293 85.8472 20.8535 91.0591 20.8535C96.1082 20.8535 99.2843 16.3744 99.2843 10.7553ZM91.0591 4.15869C88.4124 4.15869 88.2495 7.78264 88.2495 10.0222L88.2495 10.1168C88.249 12.3941 88.2478 17.0665 91.0184 17.0665C93.7873 17.0665 93.9501 13.1982 93.9501 10.8365C93.9501 9.28922 93.8687 7.41617 93.4208 5.95031C93.0136 4.64731 92.1992 4.15869 91.0591 4.15869ZM102.582 20.4463H106.166C106.532 20.4463 106.858 20.1613 106.899 19.7948V9.85948C106.899 8.59721 106.98 7.49781 107.469 6.35769C107.876 5.46188 108.69 4.89182 109.545 4.89182C111.83 4.89182 111.807 7.37137 111.788 9.35337C111.786 9.52653 111.785 9.6959 111.785 9.85948V19.8762C111.826 20.1613 112.111 20.4056 112.436 20.4463H116.02C116.386 20.4463 116.671 20.202 116.712 19.8762V8.27146C116.712 6.47985 116.712 3.99602 115.775 2.53015C114.757 0.942129 113.169 0.37207 111.581 0.37207C109.097 0.37207 107.713 1.55291 106.695 4.07745H106.614V1.26788C106.532 0.982848 106.288 0.738537 105.962 0.738537H102.623C102.257 0.738537 101.972 1.02357 101.931 1.34931V19.7948C101.931 20.1205 102.216 20.4056 102.582 20.4463Z" fill="white"/>
<path fill-rule="evenodd" clip-rule="evenodd" d="M61.0904 20.4868C61.3754 20.6497 61.7011 20.609 61.9454 20.4054C62.2056 20.1886 62.5376 19.9051 62.8922 19.6022C63.5367 19.0519 64.256 18.4377 64.755 18.0437C65.04 17.8401 64.9993 17.4329 64.755 17.1072C64.6765 16.9943 64.5974 16.8844 64.5189 16.7754C63.9467 15.9803 63.4113 15.2365 63.4113 13.7682V8.18981C63.4113 8.00337 63.4123 7.81794 63.4133 7.63373C63.4251 5.48452 63.436 3.50076 61.8233 2.0006C60.4389 0.656888 58.1586 0.208984 56.4077 0.208984C52.9874 0.208984 49.2005 1.47126 48.3862 5.70598C48.3047 6.15389 48.6305 6.35748 48.9155 6.43892L52.3766 6.80538C52.7023 6.80538 52.9059 6.47963 52.9874 6.15389C53.2724 4.68802 54.494 3.99581 55.8784 3.99581C56.6113 3.99581 57.4257 4.28084 57.8736 4.93233C58.3416 5.58031 58.3322 6.45106 58.3237 7.23509C58.3226 7.33789 58.3215 7.4392 58.3215 7.53832V7.98622C57.9837 8.02597 57.6286 8.06356 57.2624 8.10232C55.3777 8.30185 53.1987 8.53252 51.5622 9.24849C49.3227 10.2257 47.7347 12.1802 47.7347 15.112C47.7347 18.8173 50.0964 20.6904 53.1095 20.6904C55.6341 20.6904 57.0592 20.0796 59.0137 18.0844C59.1084 18.2205 59.1944 18.3471 59.276 18.4671C59.756 19.1732 60.0811 19.6515 61.0904 20.4868ZM58.3217 11.8696C58.3216 11.7973 58.3215 11.7245 58.3215 11.6511V10.8774C55.7155 10.8774 52.9874 11.4475 52.9874 14.5014C52.9874 16.0487 53.8017 17.1074 55.1862 17.1074C56.2041 17.1074 57.0999 16.4966 57.67 15.4786C58.3255 14.2833 58.3237 13.161 58.3217 11.8696Z" fill="white"/>
<path fill-rule="evenodd" clip-rule="evenodd" d="M14.0197 20.4868C14.3048 20.6497 14.6305 20.609 14.8748 20.4054C15.135 20.1886 15.467 19.9051 15.8216 19.6022C16.4661 19.0519 17.1854 18.4377 17.6844 18.0437C17.9694 17.8401 17.9287 17.4329 17.6844 17.1072C17.6059 16.9943 17.5268 16.8844 17.4483 16.7754C16.8761 15.9803 16.3407 15.2365 16.3407 13.7682V8.18981C16.3407 8.00337 16.3417 7.81794 16.3427 7.63373C16.3545 5.48452 16.3653 3.50076 14.7527 2.0006C13.3682 0.656888 11.088 0.208984 9.3371 0.208984C5.91675 0.208984 2.12993 1.47126 1.31556 5.70598C1.23412 6.15389 1.55987 6.35748 1.8449 6.43892L5.30597 6.80538C5.63172 6.80538 5.83531 6.47963 5.91675 6.15389C6.20178 4.68802 7.42334 3.99581 8.80776 3.99581C9.5407 3.99581 10.3551 4.28084 10.803 4.93233C11.271 5.58031 11.2615 6.45106 11.2531 7.23509C11.252 7.33789 11.2509 7.4392 11.2509 7.53832V7.98622C10.913 8.02597 10.5579 8.06356 10.1918 8.10232C8.30704 8.30185 6.12812 8.53252 4.4916 9.24849C2.25208 10.2257 0.664062 12.1802 0.664062 15.112C0.664062 18.8173 3.02574 20.6904 6.03891 20.6904C8.56345 20.6904 9.9886 20.0796 11.9431 18.0844C12.0377 18.2205 12.1238 18.3471 12.2054 18.4671C12.6853 19.1732 13.0105 19.6515 14.0197 20.4868ZM11.2919 11.8696C11.2918 11.7973 11.2916 11.7245 11.2916 11.6511V10.8774C8.68566 10.8774 5.95752 11.4475 5.95752 14.5014C5.95752 16.0487 6.77189 17.1074 8.15632 17.1074C9.17428 17.1074 10.0701 16.4966 10.6401 15.4786C11.2957 14.2833 11.2939 13.161 11.2919 11.8696Z" fill="white"/>
</svg>
