<svg width="122" height="36" viewBox="0 0 122 36" fill="none" xmlns="http://www.w3.org/2000/svg">
<path fill-rule="evenodd" clip-rule="evenodd" d="M5.09519 6.70459H0.887085V29.654H5.09519V20.1084H13.9704V29.654H18.1839V6.70459H13.9704V16.0538H5.09519V6.70459ZM28.0293 25.6633C29.9499 25.6633 31.5151 24.1 31.5151 22.1789V12.2983H35.5045V22.1789C35.5045 26.3009 32.1506 29.6538 28.0293 29.6538C23.9069 29.6538 20.5529 26.3009 20.5529 22.1789V12.2983H24.5436V22.1789C24.5436 24.1 26.1079 25.6633 28.0293 25.6633ZM46.6452 12.4142C44.6656 12.4142 43.2838 12.9887 41.9494 14.2986V6.70459H37.9456V20.7784C37.9456 26.0463 41.7544 29.654 46.0335 29.654C50.7906 29.654 54.9586 25.9819 54.9586 21.0344C54.9586 16.1495 51.1152 12.4142 46.6452 12.4142ZM41.9572 21.0346C41.9572 23.6846 44.0317 25.9503 46.7447 25.9503C49.0434 25.9503 51.1192 23.6846 51.1192 21.0346C51.1192 18.3841 49.0434 16.1177 46.7447 16.1177C44.0317 16.1177 41.9572 18.3841 41.9572 21.0346ZM61.6831 13.4231C61.6831 11.4105 63.0241 10.7724 64.4922 10.7724C65.6741 10.7724 67.2381 11.6663 68.2588 12.752L70.876 9.68742C69.568 7.93176 66.9187 6.71826 64.7477 6.71826C60.4055 6.71826 57.2767 9.24049 57.2767 13.4231C57.2767 17.8606 60.4002 18.9552 63.0738 19.8921C65.0742 20.5931 66.8228 21.2059 66.8228 23.0646C66.8228 24.404 65.5143 25.5864 64.0146 25.5864C61.8678 25.5864 61.0386 24.638 60.0913 23.5546C59.9958 23.4453 59.8991 23.3347 59.7997 23.2235L56.8939 26.224C58.7467 28.491 61.0445 29.6408 63.7904 29.6408C67.9085 29.6408 71.2289 27.0868 71.2289 23.0955C71.2289 17.8977 67.7575 16.8097 65.0015 15.9459C63.1873 15.3773 61.6831 14.9058 61.6831 13.4231ZM73.6811 21.0641C73.6811 15.795 77.4904 12.1894 81.769 12.1894C86.5251 12.1894 90.6943 15.8605 90.6943 20.8088C90.6943 25.6936 86.8504 29.4284 82.3807 29.4284C80.4004 29.4284 79.0193 28.853 77.6846 27.5441V35.1741H73.6811V21.0641ZM82.4803 25.7259C79.7676 25.7259 77.6927 23.4571 77.6927 20.809C77.6927 18.1586 79.7676 15.8921 82.4803 15.8921C84.7785 15.8921 86.8546 18.1586 86.8546 20.809C86.8546 23.4571 84.7785 25.7259 82.4803 25.7259ZM117.133 23.3642C117.133 24.9291 117.803 25.9503 120.165 25.9503C120.613 25.9503 121.123 25.9185 121.57 25.8876L120.581 29.5267C120.197 29.6212 119.494 29.6542 118.983 29.6542C115.569 29.6542 113.079 27.8342 113.079 24.2262V10.1152L117.133 8.2959V12.9255H120.803V16.4368H117.133V23.3642Z" fill="white"/>
<path fill-rule="evenodd" clip-rule="evenodd" d="M106.409 13.4648C107.759 14.2618 108.839 15.3204 109.606 16.6409C110.36 17.9517 110.719 19.3826 110.719 20.9334V21.0121C110.719 22.5886 110.273 24.0216 109.463 25.3185C108.657 26.6119 107.589 27.6251 106.226 28.3659C104.932 29.067 103.556 29.4097 102.097 29.4097H101.855C100.535 29.4097 99.3291 29.1219 98.2365 28.6495C97.6826 28.4103 97.1673 28.1328 96.6902 27.8033L93.2102 31.2837C93.2922 31.5454 93.3359 31.8207 93.3359 32.1028C93.3376 32.827 93.0499 33.5218 92.5368 34.0327C92.0258 34.5465 91.3306 34.8346 90.606 34.8327C89.8815 34.8347 89.1865 34.5466 88.6759 34.0327C88.1601 33.5172 87.8761 32.8319 87.8758 32.1028C87.8734 31.3785 88.161 30.6832 88.6745 30.1723C89.4243 29.4184 90.5457 29.1725 91.5422 29.5434L94.9091 26.1683C94.3521 25.4812 93.9023 24.7212 93.5947 23.8853C93.2453 22.9281 93.0403 21.909 93.0403 20.8297V20.5089C93.0403 18.9712 93.535 17.5616 94.3447 16.2805C94.7443 15.652 95.2438 15.092 95.7801 14.5995L85.6355 7.29027L84.8972 6.7302C84.3659 7.05031 83.7502 7.24502 83.0845 7.24502C81.133 7.24502 79.5522 5.66332 79.5522 3.71272C79.5522 1.76189 81.1313 0.180664 83.0829 0.180664C85.0344 0.180664 86.6142 1.76189 86.6142 3.71272C86.6142 4.03802 86.5504 4.34634 86.4674 4.64547C89.1411 6.67388 93.2646 9.80631 95.8742 11.7887C96.6791 12.4001 97.3399 12.9021 97.7698 13.2286C98.6627 12.7769 99.6405 12.483 100.583 12.3467V8.14901C99.4048 7.64857 98.7155 6.54091 98.7155 5.24869C98.7155 3.48737 100.153 2.06008 101.914 2.06008C103.674 2.06008 105.086 3.48737 105.086 5.24869C105.086 6.54091 104.355 7.64857 103.176 8.14901V12.3449C104.355 12.5049 105.401 12.8776 106.409 13.4648ZM102.097 25.6384C103.324 25.6384 104.41 24.9918 105.354 23.9421C106.177 23.0376 106.588 22.0412 106.588 20.9654C106.588 20.8042 106.581 20.6354 106.568 20.4706C106.486 19.6779 106.229 18.9502 105.798 18.2756C105.354 17.6012 104.782 17.0885 104.081 16.7132C103.393 16.3613 102.664 16.2095 101.894 16.2095H101.815C100.966 16.2095 100.204 16.4402 99.4903 16.9107C98.7633 17.3845 98.2167 17.9805 97.8119 18.7468C97.4334 19.4478 97.2832 20.1901 97.2832 20.9729V21.2148C97.2832 22.0111 97.5472 22.7621 98.0337 23.4499C98.5045 24.1507 99.0796 24.7042 99.8363 25.0922C100.508 25.4446 101.193 25.6384 101.894 25.6384H102.097Z" fill="white"/>
</svg>
