<svg width="155" height="36" viewBox="0 0 155 36" fill="none" xmlns="http://www.w3.org/2000/svg">
<path d="M147.88 2.78809L154.336 2.82365C154.336 2.82365 142.333 19.0888 141.353 20.4144C141.034 20.8436 140.551 21.3066 140.305 21.8805C139.685 23.323 139.049 26.4875 139.049 26.4875L133.142 26.517C133.142 26.517 134.061 23.2184 134.023 21.4615C133.99 19.9268 133.206 18.3938 132.767 16.8545C132.322 15.2962 131.719 12.2472 131.719 12.2472H137.793L138.63 15.5979L147.88 2.78809" fill="white"/>
<path fill-rule="evenodd" clip-rule="evenodd" d="M70.5152 19.6035C71.9887 15.8739 73.5979 11.8008 73.0835 8.05911C72.761 5.71777 71.2344 3.17358 69.5588 2.1075C69.5276 2.08845 69.4485 2.02869 69.3635 1.96446L69.3632 1.96423L69.3632 1.96418L69.3631 1.9641L69.3629 1.964C69.2612 1.88711 69.1512 1.80395 69.1046 1.77656C67.8646 1.0583 65.8795 0.453075 64.4973 0.31081C57.3711 -0.420105 53.12 2.74619 50.6762 7.01172C49.7147 8.68724 49.0784 10.5174 48.582 12.457C48.0332 14.6051 47.6395 17.2105 47.9536 19.5768C48.1423 20.9943 48.9214 23.0093 50.0481 24.1841C52.5313 26.7723 57.1501 26.7405 62.2621 26.7053C62.8617 26.7012 63.4681 26.697 64.0786 26.697C65.8608 26.697 70.1348 26.6614 71.4245 26.628C71.8414 26.6153 73.0374 21.7485 72.9307 21.5914C72.8838 21.5361 72.561 21.5414 72.0692 21.5494C71.4846 21.5591 70.6614 21.5726 69.7789 21.4929C70.0126 20.8755 70.2619 20.2446 70.5152 19.6035ZM115.437 9.75108C116.131 12.2519 114.809 18.1278 114.809 18.1278C114.809 18.1278 107.909 18.0127 104.129 18.1278C103.871 18.1357 103.602 18.1339 103.335 18.1322C102.387 18.1261 101.471 18.1201 101.197 18.5468C100.705 19.313 101.377 20.4924 101.947 20.9906C102.523 21.4945 103.579 21.6062 104.138 21.6653C104.215 21.6735 104.283 21.6807 104.339 21.6877C107.406 22.0775 113.827 21.7884 113.827 21.7884L112.715 26.7134C112.715 26.7134 103.642 27.1686 99.1033 26.0853C98.2072 25.8719 97.3671 25.4406 96.7996 24.829C96.6987 24.7201 96.6065 24.5854 96.514 24.4502L96.514 24.4501C96.4644 24.3777 96.4148 24.3052 96.3638 24.2365C96.2468 24.0791 95.9056 23.5622 95.7525 23.1535C94.716 20.3914 95.874 15.0999 97.0091 12.2642L97.0274 12.2185L97.0275 12.2182C97.1561 11.8974 97.3143 11.5025 97.4805 11.1647C97.5644 10.9943 97.6434 10.8155 97.7188 10.6449C97.8387 10.3733 97.9493 10.1227 98.0562 9.96056C98.1197 9.86166 98.1915 9.78189 98.2633 9.70211L98.2634 9.702C98.3237 9.63495 98.3841 9.56789 98.4396 9.48945C98.5797 9.28631 98.7428 9.08949 98.8938 8.91376C99.2885 8.45598 99.7333 8.12448 100.262 7.73071L100.36 7.6575C102.251 6.24148 105.672 5.14224 109.783 5.56301C111.331 5.72215 113.669 6.27494 114.809 7.86667C115.045 8.19388 115.188 8.76943 115.32 9.29799L115.32 9.29806C115.36 9.45599 115.398 9.60972 115.437 9.75138V9.75108ZM137.577 10.8991C137.577 10.8991 136.846 6.93679 135.654 6.21853C134.659 5.61944 132.612 5.67809 130.52 5.73801C129.884 5.75623 129.244 5.77456 128.629 5.77456H124.539C124.192 5.77456 123.864 5.77145 123.556 5.76852L123.556 5.76852C121.59 5.74984 120.426 5.73878 120.202 6.59349C119.402 9.64675 116.013 26.4876 116.013 26.4876H121.458L125.018 10.991H127.95C131.343 10.991 137.577 10.8991 137.577 10.8991ZM109.731 11.619C110.476 12.771 110.307 13.7657 110.307 13.7657L102.192 13.7132C102.192 13.7132 102.1 10.2075 106.831 10.3561C108.506 10.4086 109.094 10.6371 109.731 11.619ZM95.7443 5.7241L90.4648 5.75515L86.6954 21.4615C86.6954 21.4615 84.6096 21.4766 83.9728 21.4615C81.9627 21.4154 81.3029 21.3485 80.8318 20.4141C80.4462 19.6511 80.6473 18.7258 80.8641 17.7281C80.9262 17.4421 80.9897 17.1502 81.041 16.8545C81.6842 13.1478 83.2298 5.7241 83.2298 5.7241L77.7598 5.77413C77.7598 5.77413 76.7188 10.5424 76.2245 12.8753C76.1254 13.3424 76.0105 13.8407 75.8906 14.3603C75.1645 17.5086 74.2573 21.4419 75.5963 23.9744C76.9935 26.6142 80.0294 26.5641 83.5851 26.5054H83.5852H83.5853H83.5854H83.5856C84.1228 26.4966 84.6719 26.4875 85.229 26.4875H91.3024C92.8019 19.6814 95.7443 5.7241 95.7443 5.7241ZM65.7538 15.8073C65.8658 15.4092 65.9883 15.0043 66.1115 14.597C66.5961 12.9947 67.0921 11.3548 67.0104 9.94368C66.8995 8.05083 65.3122 6.32738 64.2881 5.96509C61.2034 4.8761 58.3157 6.39851 57.1679 7.64031C55.6832 9.24863 55.1804 11.1273 54.6548 13.7137C54.2635 15.6337 53.9428 17.6606 54.6548 19.158C55.7127 21.38 58.6521 21.3297 62.072 21.2712C62.7265 21.2599 63.3987 21.2484 64.0786 21.2525C64.6575 19.7008 65.144 17.9728 65.6299 16.2472L65.7538 15.8073ZM47.3526 5.78046C47.2127 6.41761 47.0728 7.08861 46.9317 7.76535C46.718 8.79012 46.5016 9.82803 46.2784 10.7814H40.4148C40.5951 10.0849 40.7586 9.38998 40.9187 8.70966L40.9187 8.7096L40.9187 8.70956C41.1619 7.67597 41.3972 6.67608 41.6713 5.75545C42.5875 5.75545 43.4722 5.76141 44.3777 5.76752C45.3266 5.77391 46.2984 5.78046 47.3529 5.78046H47.3526ZM45.8597 12.2475H40.2053C39.9186 13.1897 38.4023 19.5307 37.9019 21.8805C37.7899 22.4072 37.6905 22.9365 37.5926 23.4578C36.9349 26.9609 36.3456 30.0992 32.4573 29.6285C32.2592 30.3567 32.0363 31.1995 31.8065 32.0689C31.5405 33.075 31.2651 34.1166 31.0078 35.0568C31.4994 35.067 31.9805 35.0845 32.45 35.1015C33.7308 35.1481 34.9261 35.1916 36.0172 35.0734C36.9341 34.9734 38.5906 34.5773 38.9487 34.2358C39.023 34.1649 39.0856 34.1475 39.1525 34.1289C39.2158 34.1113 39.283 34.0926 39.3677 34.0263C41.2584 32.5493 41.7636 30.5235 42.451 27.767C42.4701 27.6901 42.4895 27.6126 42.5089 27.5346C43.6564 22.9399 45.1203 16.3394 45.8597 12.2475Z" fill="white"/>
<path d="M27.012 22.9279L26.8909 23.2419C24.8262 27.2627 21.1674 29.7294 15.9488 29.8382C13.5092 29.8886 11.1848 29.2626 9.66629 28.582C6.38938 27.1096 3.633 24.3791 2.12777 21.4618C-0.03152 17.2798 -0.420939 11.4623 4.06884 7.11719C4.13816 7.11719 3.52419 8.05939 3.59352 8.05939L3.46994 8.46147C0.234623 18.5906 10.2025 27.2711 19.8922 26.2783C22.2208 26.0396 25.1903 24.7643 27.012 22.9279Z" fill="white"/>
<path d="M21.1485 18.7394C23.5863 18.756 26.1326 17.6167 27.6405 16.0171C26.3213 19.3658 22.5015 21.5181 17.3794 20.8336C13.0903 20.2597 9.00476 15.9439 8.58399 11.6193C8.27625 8.47196 9.37308 6.59359 11.1806 4.31494C10.5525 5.50671 10.3177 6.4257 10.2592 7.01194C9.57261 13.8202 15.6978 18.7036 21.1485 18.7394Z" fill="white"/>
<path d="M27.3955 10.2829C27.0166 11.1522 24.8347 12.7937 23.8711 12.9989C20.0556 13.8118 17.612 12.0025 16.332 9.94355C16.1418 9.63612 15.79 8.79639 15.727 8.58269C15.2306 6.89481 15.4588 4.34188 16.9396 3.02051C16.4935 4.27708 16.4284 5.7365 16.6632 6.68533C16.8055 7.25891 17.2389 8.26049 17.6726 8.89043C18.4617 10.0379 18.9624 10.3167 19.976 10.9261C20.4326 11.2004 20.9224 11.4205 21.134 11.4807C22.0952 11.7638 24.1246 12.5091 27.3958 10.2829" fill="white"/>
</svg>
