<svg width="190" height="35" viewBox="0 0 190 35" fill="none" xmlns="http://www.w3.org/2000/svg">
<path fill-rule="evenodd" clip-rule="evenodd" d="M14.0129 26.3037C23.4752 26.3037 29.4578 21.4288 29.4578 12.9365C29.4573 3.60524 23.0571 0.26416 12.6214 0.26416C8.58552 0.26416 3.71532 0.541795 0.237549 0.95943V34.2425H10.3942V26.3037H14.0129ZM19.4413 13.0744C19.4413 17.3921 17.3531 20.3165 12.0648 20.3165H10.3938V6.56532C10.9879 6.53174 11.5427 6.53174 12.0648 6.53174C17.0722 6.53127 19.4413 8.89802 19.4413 13.0744ZM142.721 20.3165C148.01 20.3165 150.096 17.3921 150.096 13.0744C150.096 8.89802 147.729 6.53127 142.721 6.53174C142.2 6.53174 141.644 6.53174 141.055 6.56532V20.3165H142.721ZM144.674 26.3037C154.128 26.3037 160.114 21.4288 160.114 12.9365C160.114 3.60524 153.715 0.26416 143.278 0.26416C139.243 0.26416 134.37 0.541795 130.892 0.95943V34.2425H141.054V26.3037H144.674ZM178.061 6.80727C175.142 6.80727 173.331 7.64396 173.331 9.45355C173.331 11.613 175.996 12.5439 179.151 13.6458C183.728 15.2444 189.336 17.2031 189.336 23.795C189.336 32.1515 182.377 34.9373 173.892 34.9373C170.551 34.9373 166.377 34.3821 163.319 33.2682L162.202 25.607C165.263 27.138 170.415 28.2514 173.75 28.2514C177.508 28.2514 179.041 27.138 179.041 25.0513C179.041 22.8503 176.435 21.9299 173.336 20.8351C168.788 19.2285 163.176 17.2465 163.176 10.2917C163.176 3.50308 168.74 0.26416 176.951 0.26416C181.263 0.26416 183.628 0.681795 186.273 1.23896L187.107 8.48254C184.744 7.50396 181.263 6.80727 178.061 6.80727ZM123.242 0.959473H113.086V34.2426H123.242V0.959473ZM71.8967 0.95943H82.0543V34.2425H71.8967V0.95943ZM99.7255 27.5561V0.95943H89.568V34.2425H107.937L109.466 27.5561H99.7255ZM54.2259 0.959473H64.3834L64.383 34.2426H54.2254V21.1512H43.6502V34.2426H33.4912V0.959473H43.6507V14.1885H54.2259V0.959473Z" fill="white"/>
</svg>
