<svg width="161" height="35" viewBox="0 0 161 35" fill="none" xmlns="http://www.w3.org/2000/svg">
<path fill-rule="evenodd" clip-rule="evenodd" d="M32.7671 34.5702H22.9509V16.8252H32.7671V34.5702ZM158.108 34.5702H148.291V16.8252H158.108V34.5702Z" fill="white"/>
<path fill-rule="evenodd" clip-rule="evenodd" d="M0.316162 0.632198H153.728C156.002 0.594904 158.119 1.78675 159.267 3.75013C160.415 5.71351 160.415 8.14326 159.267 10.1065C158.119 12.0697 156.001 13.2613 153.727 13.2237L17.3057 13.2202V34.49H0.316162V0.632198ZM17.3066 8.93065H134.883C135.608 8.94562 136.285 8.5673 136.652 7.94165C137.019 7.31599 137.019 6.5408 136.652 5.91514C136.285 5.28948 135.608 4.91116 134.883 4.92614L17.3066 4.91504V8.93065Z" fill="white"/>
<path fill-rule="evenodd" clip-rule="evenodd" d="M63.5337 28.201C65.539 27.2928 66.8075 25.273 66.8075 22.9289C66.8075 19.7345 64.2952 16.8252 60.0158 16.8252H39.8174V34.5702H49.6336V28.8447H52.8434L55.8004 34.5702H66.8118L63.5337 28.201ZM55.2345 24.5465H49.6336V20.7904L55.2345 20.8092C56.2665 20.8092 57.1031 21.6458 57.1031 22.6779C57.1031 23.7099 56.2665 24.5465 55.2345 24.5465ZM94.6154 34.5702H72.9684V16.8252H94.6154V21.1046H82.7837V23.7159H94.6154V27.9945H82.7837V30.6058H94.6154V34.5702ZM111.123 16.8252H101.306V34.5702H121.065V30.6058H111.123V16.8252ZM124.443 16.8252H134.258V30.6058H144.201V34.5702H124.443V16.8252Z" fill="white"/>
</svg>
