<svg width="48" height="48" viewBox="0 0 48 48" fill="none" xmlns="http://www.w3.org/2000/svg">
<path d="M15.4711 0H23.1822H32.5289C41.0734 0 48 6.98436 48 15.6V32.4C48 41.0156 41.0734 48 32.5289 48H15.4711C6.92664 48 0 41.0156 0 32.4V15.6C0 6.98436 6.92664 0 15.4711 0Z" fill="#4C40F7"/>
<path d="M32.3976 18.5705C31.2008 16.7194 29.426 15.3157 27.349 14.5775C25.2721 13.8393 23.0094 13.808 20.9128 14.4885C18.8162 15.169 17.0033 16.5231 15.7557 18.3403C14.5082 20.1576 13.896 22.3361 14.0144 24.5372C14.1328 26.7382 14.9752 28.8385 16.4104 30.5114C17.8457 32.1843 19.7935 33.3362 21.951 33.7878C24.1085 34.2395 26.3547 33.9656 28.3405 33.0089C30.3263 32.0521 31.9403 30.4661 32.9316 28.4973L27.5727 25.7989C27.1761 26.5864 26.5305 27.2209 25.7362 27.6036C24.9419 27.9863 24.0434 28.0958 23.1804 27.9151C22.3174 27.7345 21.5383 27.2737 20.9642 26.6046C20.3901 25.9354 20.0531 25.0953 20.0058 24.2149C19.9584 23.3344 20.2033 22.463 20.7023 21.7361C21.2013 21.0092 21.9265 20.4676 22.7651 20.1954C23.6038 19.9232 24.5088 19.9357 25.3396 20.231C26.1704 20.5263 26.8803 21.0878 27.3591 21.8282L32.3976 18.5705Z" fill="white"/>
</svg>
