<svg width="39" height="34" viewBox="0 0 39 34" fill="none" xmlns="http://www.w3.org/2000/svg">
<path d="M37.6817 9.32607C37.4459 8.76036 36.9744 8.28895 36.4085 8.05323L19.9036 1.02908C19.2905 0.793368 18.6304 0.793368 18.0173 1.02908L1.51243 8.10038C0.28635 8.61894 -0.279532 10.0332 0.239193 11.2589C0.474977 11.8246 0.946545 12.296 1.51243 12.5317L18.0173 19.5559C18.6304 19.7916 19.2905 19.7916 19.9036 19.5559L36.4085 12.4846C37.6346 11.966 38.2004 10.5518 37.6817 9.32607Z" fill="white"/>
<path d="M37.965 23.5618C37.5406 22.289 36.173 21.5819 34.8998 22.0062C34.7583 22.0533 34.6169 22.1004 34.4754 22.1947L18.9136 28.7946L3.35183 22.1947C2.12575 21.6761 0.711044 22.2419 0.192318 23.4676C-0.326407 24.6933 0.239475 26.1075 1.46555 26.6261L17.9705 33.6502C18.5835 33.886 19.2437 33.886 19.8567 33.6502L36.3617 26.5789C37.682 26.2018 38.3894 24.8347 37.965 23.5618Z" fill="white"/>
<path d="M37.6817 16.4441C37.163 15.1712 35.7483 14.6055 34.5222 15.1241L18.9604 21.7711L3.3987 15.1241C2.17262 14.6055 0.757918 15.1712 0.239193 16.3969C-0.279532 17.6226 0.28635 19.0369 1.51243 19.5554L18.0173 26.6267C18.6304 26.8625 19.2905 26.8625 19.9036 26.6267L36.4085 19.6026C37.6345 19.084 38.2004 17.6698 37.6817 16.4441Z" fill="white"/>
</svg>
