<svg width="24" height="25" viewBox="0 0 24 25" fill="none" xmlns="http://www.w3.org/2000/svg">
<path fill-rule="evenodd" clip-rule="evenodd" d="M11.9999 0.181152C5.38329 0.181152 0 5.56306 0 12.1811C0 18.7979 5.38329 24.1804 11.9999 24.1804C18.6166 24.1804 24 18.7979 24 12.1811C24 5.56306 18.6166 0.181152 11.9999 0.181152ZM18.6899 8.17918L11.3053 16.4869C11.1235 16.6908 10.8701 16.7959 10.6148 16.7959C10.4123 16.7959 10.2088 16.7295 10.0385 16.5946L5.42298 12.9017C5.02512 12.5837 4.96059 12.0024 5.27904 11.6037C5.5971 11.2063 6.17855 11.1411 6.5764 11.4598L10.5073 14.6043L17.3099 6.95208C17.6478 6.57015 18.2321 6.53596 18.6129 6.87533C18.9941 7.21403 19.0287 7.79725 18.6899 8.17918Z" fill="#4C40F7"/>
</svg>
