<svg width="120" height="108" viewBox="0 0 120 108" fill="none" xmlns="http://www.w3.org/2000/svg">
<g filter="url(#filter0_d_3_4695)">
<path fill-rule="evenodd" clip-rule="evenodd" d="M43.695 62.5342C41.2317 55.4961 40 48.5166 40 41.5958C40 33.6192 42.1114 27.1969 46.3343 22.3289C50.5572 17.4609 56.7155 15.0269 64.8094 15.0269V26.1119C58.5924 26.1119 55.4839 30.1002 55.4839 38.0767V40.716H66.7449V62.5342H43.695ZM76.9502 62.5342C74.6041 55.3788 73.4311 48.3993 73.4311 41.5958C73.4311 33.6192 75.5132 27.1969 79.6774 22.3289C83.8417 17.4609 89.9707 15.0269 98.0645 15.0269V26.1119C91.9648 26.1119 88.915 30.1002 88.915 38.0767V40.716H100V62.5342H76.9502Z" fill="white"/>
</g>
<defs>
<filter id="filter0_d_3_4695" x="0" y="0.0268555" width="120" height="107.507" filterUnits="userSpaceOnUse" color-interpolation-filters="sRGB">
<feFlood flood-opacity="0" result="BackgroundImageFix"/>
<feColorMatrix in="SourceAlpha" type="matrix" values="0 0 0 0 0 0 0 0 0 0 0 0 0 0 0 0 0 0 127 0" result="hardAlpha"/>
<feOffset dx="-10" dy="15"/>
<feGaussianBlur stdDeviation="15"/>
<feColorMatrix type="matrix" values="0 0 0 0 0.298039 0 0 0 0 0.25098 0 0 0 0 0.968627 0 0 0 0.25 0"/>
<feBlend mode="normal" in2="BackgroundImageFix" result="effect1_dropShadow_3_4695"/>
<feBlend mode="normal" in="SourceGraphic" in2="effect1_dropShadow_3_4695" result="shape"/>
</filter>
</defs>
</svg>
