<svg width="19" height="19" viewBox="0 0 19 19" fill="none" xmlns="http://www.w3.org/2000/svg">
<path d="M18.426 8.92525L1.42601 0.925245C1.25482 0.844695 1.0643 0.814358 0.876566 0.837756C0.688831 0.861154 0.511584 0.937327 0.365408 1.05743C0.219232 1.17753 0.110125 1.33664 0.0507558 1.51627C-0.00861317 1.6959 -0.015808 1.88869 0.030007 2.07225L1.24201 6.92124L9.00001 9.83025L1.24201 12.7392L0.030007 17.5882C-0.01667 17.7719 -0.0100757 17.9651 0.0490187 18.1452C0.108113 18.3253 0.217264 18.4848 0.363704 18.6051C0.510143 18.7255 0.687816 18.8016 0.87594 18.8246C1.06406 18.8477 1.25486 18.8167 1.42601 18.7352L18.426 10.7352C18.5978 10.6545 18.7431 10.5265 18.8448 10.3662C18.9466 10.206 19.0006 10.0201 19.0006 9.83025C19.0006 9.64041 18.9466 9.4545 18.8448 9.29425C18.7431 9.13399 18.5978 9.006 18.426 8.92525Z" fill="#ABAFC7"/>
</svg>
