<svg width="17" height="16" viewBox="0 0 17 16" fill="none" xmlns="http://www.w3.org/2000/svg">
<path d="M16.017 5.90733C15.9643 5.74603 15.8261 5.63081 15.6582 5.60447L10.6545 4.89342L8.40278 0.367012C8.32707 0.215583 8.17235 0.120117 8.00446 0.120117C7.83657 0.120117 7.68185 0.215583 7.60613 0.370304L5.38408 4.90988L0.380347 5.65385C0.212459 5.68019 0.0741979 5.7954 0.0215271 5.95671C-0.0311438 6.11802 0.0149432 6.29578 0.136745 6.411L3.76774 9.93007L2.9283 14.9141C2.89867 15.0819 2.9678 15.2498 3.10607 15.3486C3.18178 15.4046 3.27395 15.4342 3.36613 15.4342C3.43855 15.4342 3.50768 15.4177 3.57352 15.3815L8.04067 13.0146L12.521 15.3552C12.5868 15.3881 12.656 15.4046 12.7251 15.4046C12.9687 15.4046 13.1695 15.2037 13.1695 14.9601C13.1695 14.9239 13.1662 14.891 13.1563 14.8581L12.2906 9.90374L15.8985 6.36491C16.0269 6.2464 16.0697 6.06864 16.017 5.90733Z" fill="#4C40F7"/>
</svg>
