<svg width="18" height="16" viewBox="0 0 18 16" fill="none" xmlns="http://www.w3.org/2000/svg">
<path d="M17.0072 5.97178C16.9546 5.81048 16.8163 5.69526 16.6484 5.66893L11.6447 4.95787L9.39302 0.431465C9.3173 0.280036 9.16258 0.18457 8.99469 0.18457C8.8268 0.18457 8.67208 0.280036 8.59637 0.434757L6.37432 4.97433L1.37058 5.71831C1.20269 5.74464 1.06443 5.85986 1.01176 6.02116C0.959091 6.18247 1.00518 6.36023 1.12698 6.47545L4.75798 9.99452L3.91854 14.9785C3.88891 15.1464 3.95804 15.3143 4.0963 15.413C4.17201 15.469 4.26419 15.4986 4.35636 15.4986C4.42878 15.4986 4.49792 15.4822 4.56375 15.446L9.0309 13.0791L13.5112 15.4196C13.5771 15.4525 13.6462 15.469 13.7153 15.469C13.9589 15.469 14.1597 15.2682 14.1597 15.0246C14.1597 14.9884 14.1564 14.9555 14.1466 14.9225L13.2808 9.96819L16.8887 6.42936C17.0171 6.31085 17.0599 6.13309 17.0072 5.97178Z" fill="#4C40F7"/>
</svg>
