<svg width="13" height="13" viewBox="0 0 13 13" fill="none" xmlns="http://www.w3.org/2000/svg">
<path d="M11.6887 2.08434C11.5343 1.68579 11.2985 1.32386 10.9962 1.02171C10.694 0.719562 10.3319 0.483853 9.93334 0.329672C9.4669 0.154576 8.97413 0.0598993 8.47601 0.0496718C7.83401 0.0216718 7.63068 0.0136719 6.00268 0.0136719C4.37468 0.0136719 4.16601 0.0136718 3.52934 0.0496718C3.0316 0.0593764 2.53918 0.154073 2.07334 0.329672C1.67463 0.483673 1.31252 0.719319 1.01023 1.02149C0.707945 1.32366 0.472162 1.68569 0.318009 2.08434C0.142879 2.55075 0.0484191 3.04356 0.0386761 3.54167C0.0100094 4.183 0.00134277 4.38634 0.00134277 6.015C0.00134277 7.643 0.00134277 7.85034 0.0386761 8.48834C0.0486761 8.987 0.142676 9.479 0.318009 9.94634C0.472595 10.3448 0.708607 10.7067 1.01097 11.0089C1.31333 11.311 1.67539 11.5467 2.07401 11.701C2.53897 11.8831 3.03159 11.9846 3.53068 12.001C4.17268 12.029 4.37601 12.0377 6.00401 12.0377C7.63201 12.0377 7.84068 12.0377 8.47734 12.001C8.97541 11.9909 9.46816 11.8964 9.93468 11.7217C10.3332 11.5671 10.6951 11.3312 10.9973 11.029C11.2996 10.7268 11.5355 10.3648 11.69 9.96634C11.8653 9.49967 11.9593 9.00767 11.9693 8.509C11.998 7.86767 12.0067 7.66434 12.0067 6.03567C12.0067 4.40701 12.0067 4.20034 11.9693 3.56234C11.9616 3.05719 11.8666 2.55717 11.6887 2.08434V2.08434ZM10.8767 8.439C10.8724 8.82321 10.8023 9.20383 10.6693 9.56434C10.5692 9.82358 10.416 10.059 10.2194 10.2555C10.0228 10.4519 9.78731 10.605 9.52801 10.705C9.17149 10.8373 8.79492 10.9074 8.41468 10.9123C7.78134 10.9417 7.60268 10.949 5.97868 10.949C4.35334 10.949 4.18734 10.949 3.54201 10.9123C3.16196 10.9077 2.78556 10.8375 2.42934 10.705C2.16913 10.6057 1.93268 10.4528 1.73527 10.2563C1.53786 10.0598 1.3839 9.82408 1.28334 9.56434C1.15231 9.2077 1.08222 8.83156 1.07601 8.45167C1.04734 7.81834 1.04068 7.63967 1.04068 6.01567C1.04068 4.39101 1.04068 4.225 1.07601 3.579C1.08032 3.19502 1.15045 2.81462 1.28334 2.45434C1.48668 1.92834 1.90334 1.51434 2.42934 1.31301C2.78574 1.1811 3.16203 1.11098 3.54201 1.10567C4.17601 1.07701 4.35401 1.069 5.97868 1.069C7.60334 1.069 7.77001 1.06901 8.41468 1.10567C8.79495 1.11025 9.17158 1.18039 9.52801 1.31301C9.7873 1.41319 10.0228 1.56647 10.2193 1.76303C10.4159 1.95958 10.5692 2.19505 10.6693 2.45434C10.8004 2.81097 10.8705 3.18711 10.8767 3.567C10.9053 4.201 10.9127 4.379 10.9127 6.00367C10.9127 7.62767 10.9127 7.80234 10.884 8.43967H10.8767V8.439Z" fill="white"/>
</svg>
