<svg width="8" height="8" viewBox="0 0 8 8" fill="none" xmlns="http://www.w3.org/2000/svg">
<path d="M3.99929 0.928711C3.18172 0.928711 2.39763 1.25349 1.81952 1.8316C1.24141 2.40972 0.916626 3.1938 0.916626 4.01138C0.916626 4.82895 1.24141 5.61304 1.81952 6.19115C2.39763 6.76926 3.18172 7.09404 3.99929 7.09404C4.81687 7.09404 5.60096 6.76926 6.17907 6.19115C6.75718 5.61304 7.08196 4.82895 7.08196 4.01138C7.08196 3.1938 6.75718 2.40972 6.17907 1.8316C5.60096 1.25349 4.81687 0.928711 3.99929 0.928711V0.928711ZM3.99929 6.01338C3.46815 6.01338 2.95877 5.80238 2.58319 5.42681C2.20762 5.05124 1.99663 4.54185 1.99663 4.01071C1.99663 3.47957 2.20762 2.97018 2.58319 2.59461C2.95877 2.21904 3.46815 2.00804 3.99929 2.00804C4.53043 2.00804 5.03982 2.21904 5.41539 2.59461C5.79097 2.97018 6.00196 3.47957 6.00196 4.01071C6.00196 4.54185 5.79097 5.05124 5.41539 5.42681C5.03982 5.80238 4.53043 6.01338 3.99929 6.01338V6.01338Z" fill="white"/>
</svg>
