<svg width="30" height="36" viewBox="0 0 30 36" fill="none" xmlns="http://www.w3.org/2000/svg">
<path d="M16.0615 0.387107C15.753 0.165825 15.3825 0.0477314 15.0028 0.049707C14.6232 0.0516826 14.2539 0.173626 13.9477 0.398107C10.5854 2.83461 0.333374 11.1286 0.333374 21.6666C0.333374 27.6194 3.90471 32.7454 9.01237 35.0426C8.13851 33.8128 7.66828 32.3419 7.66671 30.8333C7.63554 24.9281 14.1897 18.1961 14.4684 17.9999C14.6231 17.889 14.8087 17.8294 14.9991 17.8294C15.1895 17.8294 15.3751 17.889 15.5299 17.9999C15.8085 18.1961 22.3334 23.4523 22.3334 30.8369C22.3334 32.4026 21.8292 33.8491 20.9895 35.0426C26.0954 32.7454 29.6667 27.6213 29.6667 21.6758C29.6667 10.9306 19.433 2.77961 16.0615 0.387107Z" fill="#4C40F7"/>
</svg>
