<svg width="32" height="32" viewBox="0 0 32 32" fill="none" xmlns="http://www.w3.org/2000/svg">
<path d="M7.00001 32H2.00001C1.55798 32 1.13406 31.8244 0.821499 31.5119C0.508938 31.1993 0.333344 30.7754 0.333344 30.3334V17C0.333344 16.558 0.508938 16.1341 0.821499 15.8215C1.13406 15.509 1.55798 15.3334 2.00001 15.3334H7.00001C7.44204 15.3334 7.86596 15.509 8.17852 15.8215C8.49108 16.1341 8.66668 16.558 8.66668 17V30.3334C8.66668 30.7754 8.49108 31.1993 8.17852 31.5119C7.86596 31.8244 7.44204 32 7.00001 32ZM18.6667 32H13.6667C13.2246 32 12.8007 31.8244 12.4882 31.5119C12.1756 31.1993 12 30.7754 12 30.3334V2.00004C12 1.55801 12.1756 1.13409 12.4882 0.821529C12.8007 0.508969 13.2246 0.333374 13.6667 0.333374H18.6667C19.1087 0.333374 19.5326 0.508969 19.8452 0.821529C20.1577 1.13409 20.3333 1.55801 20.3333 2.00004V30.3334C20.3333 30.7754 20.1577 31.1993 19.8452 31.5119C19.5326 31.8244 19.1087 32 18.6667 32ZM30.3333 32H25.3333C24.8913 32 24.4674 31.8244 24.1548 31.5119C23.8423 31.1993 23.6667 30.7754 23.6667 30.3334V12C23.6667 11.558 23.8423 11.1341 24.1548 10.8215C24.4674 10.509 24.8913 10.3334 25.3333 10.3334H30.3333C30.7754 10.3334 31.1993 10.509 31.5119 10.8215C31.8244 11.1341 32 11.558 32 12V30.3334C32 30.7754 31.8244 31.1993 31.5119 31.5119C31.1993 31.8244 30.7754 32 30.3333 32Z" fill="white"/>
</svg>
