<svg width="34" height="34" viewBox="0 0 34 34" fill="none" xmlns="http://www.w3.org/2000/svg">
<path d="M16.3117 8.66494H9.8367C9.15245 8.66474 8.48471 8.87511 7.92415 9.2675C7.3636 9.65989 6.93738 10.2153 6.70336 10.8583L0.436697 28.0949C0.21503 28.7033 0.366696 29.3849 0.823363 29.8433L1.3117 30.3316L12.015 19.6283C12.0134 19.5849 12.0017 19.5416 12.0017 19.4983C12.0017 19.0038 12.1483 18.5205 12.423 18.1094C12.6977 17.6982 13.0882 17.3778 13.545 17.1886C14.0018 16.9994 14.5045 16.9499 14.9894 17.0463C15.4744 17.1428 15.9198 17.3809 16.2695 17.7305C16.6191 18.0801 16.8572 18.5256 16.9537 19.0106C17.0501 19.4955 17.0006 19.9982 16.8114 20.455C16.6222 20.9118 16.3017 21.3022 15.8906 21.5769C15.4795 21.8517 14.9962 21.9983 14.5017 21.9983C14.4584 21.9983 14.415 21.9866 14.3717 21.9849L3.66836 32.6883L4.1567 33.1766C4.38078 33.4013 4.66451 33.5571 4.97433 33.6256C5.28415 33.6941 5.60711 33.6725 5.90503 33.5633L23.1417 27.2949C23.7847 27.0609 24.3401 26.6347 24.7325 26.0742C25.1249 25.5136 25.3352 24.8459 25.335 24.1616V17.6866L28.6667 14.3566L19.6434 5.33328L16.3117 8.66494ZM30.2334 12.1016L21.9 3.76828L25.4334 0.233276L33.7667 8.56661L30.2334 12.1016Z" fill="white"/>
</svg>
