<svg width="16" height="17" viewBox="0 0 16 17" fill="none" xmlns="http://www.w3.org/2000/svg">
<path d="M7.99929 4.92871C7.18172 4.92871 6.39763 5.25349 5.81952 5.8316C5.24141 6.40972 4.91663 7.1938 4.91663 8.01138C4.91663 8.82895 5.24141 9.61304 5.81952 10.1912C6.39763 10.7693 7.18172 11.094 7.99929 11.094C8.81687 11.094 9.60096 10.7693 10.1791 10.1912C10.7572 9.61304 11.082 8.82895 11.082 8.01138C11.082 7.1938 10.7572 6.40972 10.1791 5.8316C9.60096 5.25349 8.81687 4.92871 7.99929 4.92871V4.92871ZM7.99929 10.0134C7.46815 10.0134 6.95877 9.80238 6.58319 9.42681C6.20762 9.05124 5.99663 8.54185 5.99663 8.01071C5.99663 7.47957 6.20762 6.97018 6.58319 6.59461C6.95877 6.21904 7.46815 6.00804 7.99929 6.00804C8.53043 6.00804 9.03982 6.21904 9.41539 6.59461C9.79097 6.97018 10.002 7.47957 10.002 8.01071C10.002 8.54185 9.79097 9.05124 9.41539 9.42681C9.03982 9.80238 8.53043 10.0134 7.99929 10.0134V10.0134Z" fill="white"/>
<path d="M11.204 5.53401C11.6009 5.53401 11.9227 5.21225 11.9227 4.81535C11.9227 4.41844 11.6009 4.09668 11.204 4.09668C10.8071 4.09668 10.4854 4.41844 10.4854 4.81535C10.4854 5.21225 10.8071 5.53401 11.204 5.53401Z" fill="white"/>
<path d="M13.6887 4.08434C13.5343 3.68579 13.2985 3.32386 12.9962 3.02171C12.694 2.71956 12.3319 2.48385 11.9333 2.32967C11.4669 2.15458 10.9741 2.0599 10.476 2.04967C9.83401 2.02167 9.63068 2.01367 8.00268 2.01367C6.37468 2.01367 6.16601 2.01367 5.52934 2.04967C5.0316 2.05938 4.53918 2.15407 4.07334 2.32967C3.67463 2.48367 3.31252 2.71932 3.01023 3.02149C2.70795 3.32366 2.47216 3.68569 2.31801 4.08434C2.14288 4.55075 2.04842 5.04356 2.03868 5.54167C2.01001 6.183 2.00134 6.38634 2.00134 8.015C2.00134 9.643 2.00134 9.85034 2.03868 10.4883C2.04868 10.987 2.14268 11.479 2.31801 11.9463C2.47259 12.3448 2.70861 12.7067 3.01097 13.0089C3.31333 13.311 3.67539 13.5467 4.07401 13.701C4.53897 13.8831 5.03159 13.9846 5.53068 14.001C6.17268 14.029 6.37601 14.0377 8.00401 14.0377C9.63201 14.0377 9.84068 14.0377 10.4773 14.001C10.9754 13.9909 11.4682 13.8964 11.9347 13.7217C12.3332 13.5671 12.6951 13.3312 12.9973 13.029C13.2996 12.7268 13.5355 12.3648 13.69 11.9663C13.8653 11.4997 13.9593 11.0077 13.9693 10.509C13.998 9.86767 14.0067 9.66434 14.0067 8.03567C14.0067 6.40701 14.0067 6.20034 13.9693 5.56234C13.9616 5.05719 13.8666 4.55717 13.6887 4.08434V4.08434ZM12.8767 10.439C12.8724 10.8232 12.8023 11.2038 12.6693 11.5643C12.5692 11.8236 12.416 12.059 12.2194 12.2555C12.0228 12.4519 11.7873 12.605 11.528 12.705C11.1715 12.8373 10.7949 12.9074 10.4147 12.9123C9.78134 12.9417 9.60268 12.949 7.97868 12.949C6.35334 12.949 6.18734 12.949 5.54201 12.9123C5.16196 12.9077 4.78556 12.8375 4.42934 12.705C4.16913 12.6057 3.93268 12.4528 3.73527 12.2563C3.53786 12.0598 3.3839 11.8241 3.28334 11.5643C3.15231 11.2077 3.08222 10.8316 3.07601 10.4517C3.04734 9.81834 3.04068 9.63967 3.04068 8.01567C3.04068 6.39101 3.04068 6.225 3.07601 5.579C3.08032 5.19502 3.15045 4.81462 3.28334 4.45434C3.48668 3.92834 3.90334 3.51434 4.42934 3.31301C4.78574 3.1811 5.16203 3.11098 5.54201 3.10567C6.17601 3.07701 6.35401 3.069 7.97868 3.069C9.60334 3.069 9.77001 3.06901 10.4147 3.10567C10.7949 3.11025 11.1716 3.18039 11.528 3.31301C11.7873 3.41319 12.0228 3.56647 12.2193 3.76303C12.4159 3.95958 12.5692 4.19505 12.6693 4.45434C12.8004 4.81097 12.8705 5.18711 12.8767 5.567C12.9053 6.201 12.9127 6.379 12.9127 8.00367C12.9127 9.62767 12.9127 9.80234 12.884 10.4397H12.8767V10.439Z" fill="white"/>
</svg>
