<svg width="13" height="13" viewBox="0 0 13 13" fill="none" xmlns="http://www.w3.org/2000/svg">
<path d="M11.6887 2.90367C11.5343 2.50513 11.2985 2.1432 10.9962 1.84105C10.694 1.5389 10.3319 1.30319 9.93334 1.14901C9.4669 0.973912 8.97413 0.879235 8.47601 0.869008C7.83401 0.841008 7.63068 0.833008 6.00268 0.833008C4.37468 0.833008 4.16601 0.833008 3.52934 0.869008C3.0316 0.878712 2.53918 0.973409 2.07334 1.14901C1.67463 1.30301 1.31252 1.53865 1.01023 1.84083C0.707945 2.143 0.472162 2.50502 0.318009 2.90367C0.142879 3.37008 0.0484191 3.8629 0.0386761 4.36101C0.0100094 5.00234 0.00134277 5.20567 0.00134277 6.83434C0.00134277 8.46234 0.00134277 8.66967 0.0386761 9.30767C0.0486761 9.80634 0.142676 10.2983 0.318009 10.7657C0.472595 11.1642 0.708607 11.5261 1.01097 11.8282C1.31333 12.1303 1.67539 12.3661 2.07401 12.5203C2.53897 12.7025 3.03159 12.8039 3.53068 12.8203C4.17268 12.8483 4.37601 12.857 6.00401 12.857C7.63201 12.857 7.84068 12.857 8.47734 12.8203C8.97541 12.8102 9.46816 12.7158 9.93468 12.541C10.3332 12.3865 10.6951 12.1506 10.9973 11.8483C11.2996 11.5461 11.5355 11.1842 11.69 10.7857C11.8653 10.319 11.9593 9.82701 11.9693 9.32834C11.998 8.68701 12.0067 8.48367 12.0067 6.85501C12.0067 5.22634 12.0067 5.01967 11.9693 4.38167C11.9616 3.87652 11.8666 3.37651 11.6887 2.90367ZM10.8767 9.25834C10.8724 9.64254 10.8023 10.0232 10.6693 10.3837C10.5692 10.6429 10.416 10.8783 10.2194 11.0748C10.0228 11.2712 9.78732 11.4244 9.52801 11.5243C9.17149 11.6566 8.79492 11.7268 8.41468 11.7317C7.78134 11.761 7.60268 11.7683 5.97868 11.7683C4.35334 11.7683 4.18734 11.7683 3.54201 11.7317C3.16196 11.727 2.78556 11.6569 2.42934 11.5243C2.16913 11.425 1.93268 11.2721 1.73527 11.0756C1.53786 10.8792 1.3839 10.6434 1.28334 10.3837C1.15231 10.027 1.08222 9.6509 1.07601 9.27101C1.04734 8.63767 1.04068 8.45901 1.04068 6.83501C1.04068 5.21034 1.04068 5.04434 1.07601 4.39834C1.08032 4.01436 1.15045 3.63395 1.28334 3.27367C1.48668 2.74767 1.90334 2.33367 2.42934 2.13234C2.78574 2.00043 3.16203 1.93032 3.54201 1.92501C4.17601 1.89634 4.35401 1.88834 5.97868 1.88834C7.60334 1.88834 7.77001 1.88834 8.41468 1.92501C8.79495 1.92958 9.17158 1.99972 9.52801 2.13234C9.7873 2.23252 10.0228 2.38581 10.2193 2.58236C10.4159 2.77891 10.5692 3.01439 10.6693 3.27367C10.8004 3.63031 10.8705 4.00645 10.8767 4.38634C10.9053 5.02034 10.9127 5.19834 10.9127 6.82301C10.9127 8.44701 10.9127 8.62167 10.884 9.25901H10.8767V9.25834Z" fill="white"/>
</svg>
