<svg width="14" height="12" viewBox="0 0 14 12" fill="none" xmlns="http://www.w3.org/2000/svg">
<path d="M12.0887 3.16177C12.0973 3.27843 12.0973 3.39443 12.0973 3.51043C12.0973 7.06043 9.39534 11.1511 4.45734 11.1511C2.93601 11.1511 1.52268 10.7104 0.333344 9.9451C0.549344 9.96977 0.757344 9.97843 0.98201 9.97843C2.19067 9.98135 3.36511 9.57719 4.31601 8.8311C3.75562 8.82096 3.21239 8.63607 2.76217 8.30226C2.31194 7.96844 1.9772 7.50236 1.80468 6.9691C1.97068 6.99377 2.13734 7.01043 2.31201 7.01043C2.55268 7.01043 2.79468 6.9771 3.01934 6.9191C2.41118 6.79631 1.86433 6.46667 1.47176 5.98622C1.07919 5.50578 0.865139 4.9042 0.86601 4.28377V4.25043C1.22401 4.44977 1.63934 4.57443 2.07934 4.5911C1.71074 4.34616 1.40849 4.01378 1.19957 3.62363C0.99065 3.23347 0.881552 2.79767 0.88201 2.3551C0.88201 1.85643 1.01468 1.3991 1.24734 1.00043C1.9221 1.83045 2.76368 2.50947 3.71757 2.99354C4.67146 3.4776 5.71638 3.75591 6.78468 3.81043C6.74334 3.61043 6.71801 3.4031 6.71801 3.1951C6.71783 2.84241 6.78717 2.49314 6.92206 2.16726C7.05695 1.84138 7.25474 1.54528 7.50414 1.29589C7.75353 1.0465 8.04962 0.848707 8.3755 0.713818C8.70138 0.578929 9.05065 0.509591 9.40334 0.509766C10.1767 0.509766 10.8747 0.833766 11.3653 1.35777C11.9665 1.24151 12.543 1.02205 13.0693 0.709099C12.869 1.32964 12.4492 1.85584 11.8887 2.1891C12.4219 2.12829 12.943 1.98807 13.4347 1.7731C13.0674 2.3085 12.6124 2.778 12.0887 3.16177Z" fill="white"/>
</svg>
